<svg width="16" height="16" viewBox="0 0 16 16" fill="none" xmlns="http://www.w3.org/2000/svg">
<g clip-path="url(#clip0_1049_413)">
<path d="M5.57386 0.526614C3.97522 1.0812 2.59654 2.13382 1.64035 3.52987C0.684163 4.92591 0.200854 6.59179 0.261418 8.28282C0.321982 9.97385 0.923226 11.6009 1.97684 12.925C3.03045 14.249 4.48089 15.2003 6.11511 15.6391C7.44002 15.981 8.82813 15.996 10.1601 15.6829C11.3668 15.4118 12.4823 14.8321 13.3976 14.0004C14.3502 13.1083 15.0417 11.9735 15.3976 10.7179C15.7845 9.35245 15.8534 7.91653 15.5989 6.52036H8.15886V9.60661H12.4676C12.3815 10.0988 12.197 10.5687 11.9251 10.9879C11.6531 11.4072 11.2994 11.7672 10.8851 12.0466C10.359 12.3947 9.76586 12.6288 9.14387 12.7341C8.52005 12.8501 7.88019 12.8501 7.25636 12.7341C6.6241 12.6034 6.02599 12.3424 5.50011 11.9679C4.6553 11.3698 4.02096 10.5203 3.68762 9.54036C3.34863 8.54211 3.34863 7.45987 3.68762 6.46161C3.9249 5.76188 4.31716 5.12478 4.83511 4.59786C5.42785 3.9838 6.17828 3.54486 7.00406 3.32921C7.82984 3.11356 8.69906 3.12953 9.51637 3.37536C10.1548 3.57135 10.7387 3.91379 11.2214 4.37536C11.7072 3.89203 12.1922 3.40745 12.6764 2.92161C12.9264 2.66036 13.1989 2.41161 13.4451 2.14411C12.7083 1.45846 11.8435 0.924935 10.9001 0.574114C9.18224 -0.0496489 7.30259 -0.0664119 5.57386 0.526614Z" fill="white"/>
<path d="M5.57372 0.527221C7.3023 -0.0662075 9.18196 -0.0498857 10.9 0.573471C11.8435 0.926676 12.708 1.46277 13.4437 2.15097C13.1937 2.41847 12.93 2.66847 12.675 2.92847C12.19 3.41264 11.7054 3.89514 11.2212 4.37597C10.7385 3.91439 10.1547 3.57196 9.51622 3.37597C8.69919 3.12927 7.82999 3.11238 7.00399 3.32715C6.178 3.54192 5.42711 3.98005 4.83372 4.59347C4.31576 5.12039 3.9235 5.75749 3.68622 6.45722L1.09497 4.45097C2.02248 2.61167 3.62841 1.20475 5.57372 0.527221Z" fill="#E33629"/>
<path d="M0.407438 6.43672C0.546714 5.74646 0.777942 5.078 1.09494 4.44922L3.68619 6.46047C3.34721 7.45873 3.34721 8.54096 3.68619 9.53922C2.82285 10.2059 1.9591 10.8759 1.09494 11.5492C0.301376 9.96961 0.0593537 8.16985 0.407438 6.43672Z" fill="#F8BD00"/>
<path d="M8.15876 6.51953H15.5988C15.8533 7.9157 15.7844 9.35162 15.3975 10.717C15.0416 11.9726 14.3501 13.1075 13.3975 13.9995C12.5613 13.347 11.7213 12.6995 10.885 12.047C11.2996 11.7674 11.6535 11.4069 11.9254 10.9872C12.1973 10.5675 12.3817 10.0972 12.4675 9.60453H8.15876C8.15751 8.57703 8.15876 7.54828 8.15876 6.51953Z" fill="#587DBD"/>
<path d="M1.09375 11.5491C1.95792 10.8824 2.82167 10.2124 3.685 9.53906C4.01901 10.5193 4.65426 11.3689 5.5 11.9666C6.02751 12.3394 6.62691 12.5982 7.26 12.7266C7.88382 12.8426 8.52368 12.8426 9.1475 12.7266C9.76949 12.6213 10.3626 12.3871 10.8888 12.0391C11.725 12.6916 12.565 13.3391 13.4012 13.9916C12.4861 14.8237 11.3705 15.4039 10.1637 15.6753C8.83176 15.9884 7.44365 15.9734 6.11875 15.6316C5.07088 15.3518 4.09209 14.8586 3.24375 14.1828C2.34583 13.4699 1.61244 12.5715 1.09375 11.5491Z" fill="#319F43"/>
</g>
<defs>
<clipPath id="clip0_1049_413">
<rect width="16" height="16" fill="white"/>
</clipPath>
</defs>
</svg>
