<svg width="18" height="16" viewBox="0 0 18 16" fill="none" xmlns="http://www.w3.org/2000/svg">
<g clip-path="url(#clip0_1049_421)">
<path d="M9 0.078125C13.9719 0.078125 18 3.25625 18 7.175C18 11.0938 13.9719 14.2719 9 14.2719C8.45312 14.2719 7.91875 14.2344 7.4 14.1594C6.88125 14.525 3.88125 16.6313 3.59687 16.6719C3.59687 16.6719 3.48125 16.7156 3.38125 16.6594C3.28125 16.6031 3.3 16.45 3.3 16.45C3.33125 16.2438 4.08125 13.6625 4.21875 13.1844C1.68438 11.9312 0 9.70625 0 7.17188C0 3.25312 4.02812 0.078125 9 0.078125ZM2.69375 5.05312C2.4125 5.05312 2.18438 5.28125 2.18438 5.5625C2.18438 5.84375 2.4125 6.07188 2.69375 6.07188H3.50312V9.15625C3.50312 9.43125 3.7375 9.65312 4.02187 9.65312C4.30625 9.65312 4.54063 9.43125 4.54063 9.15625V6.07188H5.35C5.63125 6.07188 5.85938 5.84375 5.85938 5.5625C5.85938 5.28125 5.63125 5.05312 5.35 5.05312H2.69062H2.69375ZM7.09375 5.05312C6.75625 5.05937 6.49062 5.31563 6.40312 5.56563L5.1625 8.83438C5.00625 9.325 5.14375 9.50625 5.28438 9.57187C5.38438 9.61875 5.5 9.64375 5.61562 9.64375C5.83125 9.64375 5.99687 9.55625 6.04688 9.41562L6.30312 8.74063H7.8875L8.14375 9.4125C8.19375 9.55313 8.35937 9.64062 8.575 9.64062C8.69062 9.64062 8.80313 9.61563 8.90625 9.56875C9.05 9.50313 9.1875 9.32188 9.02812 8.83125L7.7875 5.56563C7.7 5.31563 7.43437 5.05937 7.09375 5.05312ZM12.7469 5.05312C12.4594 5.05312 12.2281 5.2875 12.2281 5.57188V9.125C12.2281 9.4125 12.4625 9.64375 12.7469 9.64375C13.0312 9.64375 13.2656 9.40938 13.2656 9.125V7.99375L13.4469 7.8125L14.6625 9.425C14.7625 9.55625 14.9125 9.63125 15.0781 9.63125C15.1906 9.63125 15.3 9.59687 15.3906 9.52812C15.5 9.44375 15.5719 9.32187 15.5906 9.18437C15.6094 9.04687 15.575 8.90938 15.4906 8.8L14.2125 7.10625L15.3969 5.925C15.4781 5.84375 15.5187 5.73125 15.5125 5.60938C15.5062 5.4875 15.45 5.37188 15.3594 5.28125C15.2625 5.18438 15.1313 5.12813 15.0031 5.12813C14.8906 5.12813 14.7906 5.16875 14.7156 5.24375L13.2688 6.69375V5.57812C13.2688 5.29063 13.0344 5.05937 12.75 5.05937L12.7469 5.05312ZM9.89375 5.05312C9.60313 5.05312 9.36563 5.2875 9.36563 5.57188V9.09688C9.36563 9.35938 9.5875 9.57187 9.8625 9.575H11.5281C11.8031 9.575 12.025 9.35938 12.025 9.09688C12.025 8.83438 11.8 8.62187 11.5281 8.62187H10.425V5.57188C10.425 5.28438 10.1875 5.05312 9.89375 5.05312ZM7.6125 7.82188H6.575L7.09375 6.35L7.6125 7.82188Z" fill="#3C1E1E"/>
</g>
<defs>
<clipPath id="clip0_1049_421">
<rect width="18" height="16" fill="white"/>
</clipPath>
</defs>
</svg>
