<svg width="23" height="29" viewBox="0 0 23 29" fill="none" xmlns="http://www.w3.org/2000/svg">
<path fill-rule="evenodd" clip-rule="evenodd" d="M7.3125 17.914C7.3125 17.6866 7.3981 17.4685 7.55048 17.3078C7.70285 17.147 7.90951 17.0566 8.125 17.0566H14.625C14.8405 17.0566 15.0472 17.147 15.1995 17.3078C15.3519 17.4685 15.4375 17.6866 15.4375 17.914C15.4375 18.1414 15.3519 18.3595 15.1995 18.5203C15.0472 18.681 14.8405 18.7714 14.625 18.7714H8.125C7.90951 18.7714 7.70285 18.681 7.55048 18.5203C7.3981 18.3595 7.3125 18.1414 7.3125 17.914Z" fill="black"/>
<path d="M11.375 2.4817C12.4524 2.4817 13.4858 2.93334 14.2476 3.73728C15.0095 4.54122 15.4375 5.63159 15.4375 6.76852V7.62589H7.3125V6.76852C7.3125 5.63159 7.74051 4.54122 8.50238 3.73728C9.26425 2.93334 10.2976 2.4817 11.375 2.4817ZM17.0625 7.62589V6.76852C17.0625 5.17681 16.4633 3.65029 15.3967 2.52478C14.3301 1.39927 12.8834 0.766968 11.375 0.766968C9.86658 0.766968 8.41994 1.39927 7.35333 2.52478C6.28672 3.65029 5.6875 5.17681 5.6875 6.76852V7.62589H0V24.7732C0 25.6827 0.34241 26.555 0.951903 27.1982C1.5614 27.8413 2.38805 28.2027 3.25 28.2027H19.5C20.362 28.2027 21.1886 27.8413 21.7981 27.1982C22.4076 26.555 22.75 25.6827 22.75 24.7732V7.62589H17.0625ZM1.625 9.34062H21.125V24.7732C21.125 25.228 20.9538 25.6641 20.649 25.9857C20.3443 26.3073 19.931 26.4879 19.5 26.4879H3.25C2.81902 26.4879 2.4057 26.3073 2.10095 25.9857C1.7962 25.6641 1.625 25.228 1.625 24.7732V9.34062Z" fill="black"/>
</svg>
