<svg width="22" height="29" viewBox="0 0 22 29" fill="none" xmlns="http://www.w3.org/2000/svg">
<path fill-rule="evenodd" clip-rule="evenodd" d="M10.582 0.766968C7.40965 0.766968 4.83789 3.48077 4.83789 6.8284C4.83789 10.176 7.40965 12.8898 10.582 12.8898C13.7545 12.8898 16.3262 10.176 16.3262 6.8284C16.3262 3.48077 13.7545 0.766968 10.582 0.766968ZM6.65184 6.8284C6.65184 4.53791 8.41146 2.6811 10.582 2.6811C12.7527 2.6811 14.5123 4.53791 14.5123 6.8284C14.5123 9.11889 12.7527 10.9757 10.582 10.9757C8.41146 10.9757 6.65184 9.11889 6.65184 6.8284Z" fill="black"/>
<path fill-rule="evenodd" clip-rule="evenodd" d="M10.5815 14.8037C7.78377 14.8037 5.20612 15.4748 3.29605 16.6085C1.41442 17.7254 0.000154485 19.4182 0.000154485 21.5032L8.21166e-05 21.6333C-0.00128439 23.1159 -0.00300181 24.9767 1.54373 26.3058C2.30495 26.9599 3.36985 27.425 4.80859 27.7324C6.25136 28.0405 8.13178 28.2027 10.5815 28.2027C13.0313 28.2027 14.9118 28.0405 16.3545 27.7324C17.7933 27.425 18.8582 26.9599 19.6194 26.3058C21.166 24.9767 21.1644 23.1159 21.163 21.6333L21.1629 21.5032C21.1629 19.4182 19.7487 17.7254 17.8671 16.6085C15.957 15.4748 13.3794 14.8037 10.5815 14.8037ZM1.81411 21.5032C1.81411 20.4169 2.56554 19.2383 4.18537 18.2768C5.77675 17.3323 8.03631 16.7178 10.5815 16.7178C13.1269 16.7178 15.3863 17.3323 16.9778 18.2768C18.5976 19.2383 19.349 20.4169 19.349 21.5032C19.349 23.1721 19.3002 24.1115 18.4739 24.8215C18.0259 25.2067 17.2768 25.5825 15.9946 25.8563C14.7165 26.1293 12.969 26.2885 10.5815 26.2885C8.19411 26.2885 6.44663 26.1293 5.16847 25.8563C3.88628 25.5825 3.13723 25.2067 2.68915 24.8215C1.86287 24.1115 1.81411 23.1721 1.81411 21.5032Z" fill="black"/>
</svg>
