<svg width="40" height="40" viewBox="0 0 40 40" fill="none" xmlns="http://www.w3.org/2000/svg">
<circle cx="20" cy="20" r="19.5" fill="white" stroke="#D9D9D9"/>
<path d="M26.0203 13.9548L26.3969 14.3115V12.5315C26.3969 11.9415 26.8736 11.4648 27.4636 11.4648C28.0536 11.4648 28.5303 11.9415 28.5303 12.5315V16.7982C28.5303 17.3882 28.0536 17.8648 27.4636 17.8648H23.1969C22.6069 17.8648 22.1303 17.3882 22.1303 16.7982C22.1303 16.2082 22.6069 15.7315 23.1969 15.7315H24.7936L24.5403 15.4915C24.5336 15.4848 24.5269 15.4782 24.5203 15.4715C22.0203 12.9715 17.9703 12.9715 15.4703 15.4715C12.9703 17.9715 12.9703 22.0215 15.4703 24.5215C17.9703 27.0215 22.0203 27.0215 24.5203 24.5215C24.7936 24.2482 25.0369 23.9582 25.2503 23.6515C25.5869 23.1682 26.2536 23.0515 26.7369 23.3882C27.2203 23.7248 27.3369 24.3915 27.0003 24.8748C26.7169 25.2815 26.3936 25.6682 26.0303 26.0315C22.6969 29.3648 17.2936 29.3648 13.9636 26.0315C10.6336 22.6982 10.6303 17.2982 13.9636 13.9648C17.2936 10.6348 22.6869 10.6315 26.0203 13.9548Z" fill="#333333"/>
</svg>
