<svg width="14" height="13" viewBox="0 0 14 13" fill="none" xmlns="http://www.w3.org/2000/svg">
<path d="M11.5181 1.96906L11.8006 2.23656V0.901564C11.8006 0.459064 12.1581 0.101564 12.6006 0.101564C13.0431 0.101564 13.4006 0.459064 13.4006 0.901564V4.10156C13.4006 4.54406 13.0431 4.90156 12.6006 4.90156H9.40063C8.95813 4.90156 8.60063 4.54406 8.60063 4.10156C8.60063 3.65906 8.95813 3.30156 9.40063 3.30156H10.5981L10.4081 3.12156C10.4031 3.11656 10.3981 3.11156 10.3931 3.10656C8.51813 1.23156 5.48063 1.23156 3.60562 3.10656C1.73063 4.98156 1.73063 8.01906 3.60562 9.89406C5.48063 11.7691 8.51813 11.7691 10.3931 9.89406C10.5981 9.68906 10.7806 9.47156 10.9406 9.24156C11.1931 8.87906 11.6931 8.79156 12.0556 9.04406C12.4181 9.29656 12.5056 9.79656 12.2531 10.1591C12.0406 10.4641 11.7981 10.7541 11.5256 11.0266C9.02563 13.5266 4.97312 13.5266 2.47563 11.0266C-0.021875 8.52656 -0.024375 4.47656 2.47563 1.97656C4.97312 -0.520936 9.01813 -0.523436 11.5181 1.96906Z" fill="#F2544B"/>
</svg>
