<svg width="23" height="20" viewBox="0 0 23 20" fill="none" xmlns="http://www.w3.org/2000/svg">
<path d="M9.3717 1.66797L7.86632 2.21875C7.74653 2.26172 7.66667 2.375 7.66667 2.5C7.66667 2.625 7.74653 2.73828 7.86632 2.78125L9.3717 3.33203L9.93472 4.80469C9.97865 4.92188 10.0944 5 10.2222 5C10.35 5 10.4658 4.92188 10.5097 4.80469L11.0727 3.33203L12.5781 2.78125C12.6979 2.73828 12.7778 2.625 12.7778 2.5C12.7778 2.375 12.6979 2.26172 12.5781 2.21875L11.0727 1.66797L10.5097 0.195312C10.4658 0.078125 10.35 0 10.2222 0C10.0944 0 9.97865 0.078125 9.93472 0.195312L9.3717 1.66797ZM1.8408 15.4453C1.0941 16.1758 1.0941 17.3633 1.8408 18.0977L3.2224 19.4492C3.9691 20.1797 5.18299 20.1797 5.93368 19.4492L21.1592 4.55078C21.9059 3.82031 21.9059 2.63281 21.1592 1.89844L19.7776 0.550781C19.0309 -0.179688 17.817 -0.179688 17.0663 0.550781L1.8408 15.4453ZM19.3503 3.22656L15.1576 7.32812L14.2273 6.41797L18.42 2.31641L19.3503 3.22656ZM0.299479 4.57812C0.119792 4.64453 0 4.8125 0 5C0 5.1875 0.119792 5.35547 0.299479 5.42188L2.55556 6.25L3.40208 8.45703C3.46996 8.63281 3.64167 8.75 3.83333 8.75C4.025 8.75 4.1967 8.63281 4.26458 8.45703L5.11111 6.25L7.36719 5.42188C7.54687 5.35547 7.66667 5.1875 7.66667 5C7.66667 4.8125 7.54687 4.64453 7.36719 4.57812L5.11111 3.75L4.26458 1.54297C4.1967 1.36719 4.025 1.25 3.83333 1.25C3.64167 1.25 3.46996 1.36719 3.40208 1.54297L2.55556 3.75L0.299479 4.57812ZM14.355 14.5781C14.1753 14.6445 14.0556 14.8125 14.0556 15C14.0556 15.1875 14.1753 15.3555 14.355 15.4219L16.6111 16.25L17.4576 18.457C17.5255 18.6328 17.6972 18.75 17.8889 18.75C18.0806 18.75 18.2523 18.6328 18.3201 18.457L19.1667 16.25L21.4227 15.4219C21.6024 15.3555 21.7222 15.1875 21.7222 15C21.7222 14.8125 21.6024 14.6445 21.4227 14.5781L19.1667 13.75L18.3201 11.543C18.2523 11.3672 18.0806 11.25 17.8889 11.25C17.6972 11.25 17.5255 11.3672 17.4576 11.543L16.6111 13.75L14.355 14.5781Z" fill="black"/>
</svg>
