<svg width="18" height="20" viewBox="0 0 18 20" fill="none" xmlns="http://www.w3.org/2000/svg">
<g clip-path="url(#clip0_757_747)">
<path d="M9.63281 0.368164C9.14453 -0.120117 8.35156 -0.120117 7.86328 0.368164L2.86328 5.36816C2.375 5.85645 2.375 6.64941 2.86328 7.1377C3.35156 7.62598 4.14453 7.62598 4.63281 7.1377L7.5 4.27051V12.501C7.5 13.1924 8.05859 13.751 8.75 13.751C9.44141 13.751 10 13.1924 10 12.501V4.27051L12.8672 7.1377C13.3555 7.62598 14.1484 7.62598 14.6367 7.1377C15.125 6.64941 15.125 5.85645 14.6367 5.36816L9.63672 0.368164H9.63281ZM2.5 13.751C2.5 13.0596 1.94141 12.501 1.25 12.501C0.558594 12.501 0 13.0596 0 13.751V16.251C0 18.3213 1.67969 20.001 3.75 20.001H13.75C15.8203 20.001 17.5 18.3213 17.5 16.251V13.751C17.5 13.0596 16.9414 12.501 16.25 12.501C15.5586 12.501 15 13.0596 15 13.751V16.251C15 16.9424 14.4414 17.501 13.75 17.501H3.75C3.05859 17.501 2.5 16.9424 2.5 16.251V13.751Z" fill="black"/>
</g>
<defs>
<clipPath id="clip0_757_747">
<rect width="17.5" height="20" fill="white"/>
</clipPath>
</defs>
</svg>
