<svg width="50" height="50" viewBox="0 0 50 50" fill="none" xmlns="http://www.w3.org/2000/svg">
<circle cx="25" cy="25" r="24.5" fill="#F2F2F2" stroke="#D9D9D9"/>
<g clip-path="url(#clip0_1391_17345)">
<path d="M27.2695 10.2313C26.5914 9.55311 25.49 9.55311 24.8119 10.2313L17.8674 17.1757C17.1892 17.8539 17.1892 18.9552 17.8674 19.6334C18.5456 20.3116 19.6469 20.3116 20.3251 19.6334L24.3073 15.6512V27.0824C24.3073 28.0427 25.0831 28.8185 26.0434 28.8185C27.0037 28.8185 27.7795 28.0427 27.7795 27.0824V15.6512L31.7617 19.6334C32.4399 20.3116 33.5412 20.3116 34.2194 19.6334C34.8976 18.9552 34.8976 17.8539 34.2194 17.1757L27.275 10.2313H27.2695ZM17.3628 28.8185C17.3628 27.8582 16.587 27.0824 15.6267 27.0824C14.6664 27.0824 13.8906 27.8582 13.8906 28.8185V32.2907C13.8906 35.1662 16.2235 37.4991 19.099 37.4991H32.9878C35.8633 37.4991 38.1962 35.1662 38.1962 32.2907V28.8185C38.1962 27.8582 37.4204 27.0824 36.4601 27.0824C35.4998 27.0824 34.724 27.8582 34.724 28.8185V32.2907C34.724 33.251 33.9481 34.0269 32.9878 34.0269H19.099C18.1387 34.0269 17.3628 33.251 17.3628 32.2907V28.8185Z" fill="black"/>
</g>
<defs>
<clipPath id="clip0_1391_17345">
<rect width="24.3056" height="27.7778" fill="white" transform="translate(13.8906 9.72266)"/>
</clipPath>
</defs>
</svg>
