<svg width="50" height="50" viewBox="0 0 50 50" fill="none" xmlns="http://www.w3.org/2000/svg">
<circle cx="25" cy="25" r="25" fill="white"/>
<path d="M24.8829 16.8695L25.664 17.9475L26.4452 16.8695C27.7472 15.0676 29.8407 14 32.0644 14C35.8922 14 38.996 17.1039 38.996 20.9316V21.067C38.996 26.9102 31.7103 33.6959 27.9086 36.5967C27.2628 37.0862 26.4712 37.331 25.664 37.331C24.8568 37.331 24.06 37.0914 23.4195 36.5967C19.6178 33.6959 12.332 26.9102 12.332 21.067V20.9316C12.332 17.1039 15.4359 14 19.2636 14C21.4874 14 23.5809 15.0676 24.8829 16.8695Z" fill="#F2544B"/>
</svg>
