<svg width="50" height="50" viewBox="0 0 50 50" fill="none" xmlns="http://www.w3.org/2000/svg">
<circle cx="25" cy="25" r="25" fill="white"/>
<path d="M31.3984 15.832C29.9766 15.832 28.638 16.5143 27.8047 17.6654L26.013 20.1445C25.7786 20.4674 25.4036 20.6602 25.0026 20.6602C24.6016 20.6602 24.2266 20.4674 23.9922 20.1445L22.2005 17.6654C21.3672 16.5143 20.0286 15.832 18.6068 15.832C16.1589 15.832 14.1745 17.8164 14.1745 20.2643C14.1745 22.8633 15.8411 25.3893 17.7214 27.6758C19.862 30.2799 22.4818 32.5716 24.2786 33.9414C24.4453 34.0664 24.6901 34.1602 25.0078 34.1602C25.3255 34.1602 25.5703 34.0664 25.737 33.9414C27.5339 32.5716 30.1536 30.2747 32.2943 27.6758C34.1797 25.3893 35.8411 22.8633 35.8411 20.2643C35.8411 17.8164 33.8568 15.832 31.4089 15.832H31.3984ZM25.7786 16.2018C27.0807 14.3997 29.1745 13.332 31.3984 13.332C35.2266 13.332 38.3307 16.4362 38.3307 20.2643C38.3307 23.8372 36.0964 26.9779 34.2109 29.2643C31.9141 32.056 29.1432 34.4779 27.2422 35.9258C26.6016 36.4154 25.8099 36.6602 24.9974 36.6602C24.1849 36.6602 23.3932 36.4154 22.7526 35.9258C20.8516 34.4779 18.0807 32.056 15.7839 29.2695C13.8984 26.9831 11.6641 23.8372 11.6641 20.2643C11.6641 16.4362 14.7682 13.332 18.5964 13.332C20.8203 13.332 22.9141 14.3997 24.2161 16.2018L24.9974 17.2799L25.7786 16.2018Z" fill="#F2544B"/>
</svg>
