<svg width="52" height="50" viewBox="0 0 52 50" fill="none" xmlns="http://www.w3.org/2000/svg">
  <path
    d="M28.015 1.22812C27.6306 0.478125 26.8525 0 26.0088 0C25.165 0 24.3869 0.478125 24.0025 1.22812L17.1025 14.7469L2.11188 17.1281C1.27751 17.2594 0.58376 17.85 0.32126 18.6562C0.0587597 19.4625 0.274385 20.3438 0.86501 20.9437L11.59 31.6781L9.22751 46.6687C9.09626 47.5031 9.44314 48.3469 10.1275 48.8438C10.8119 49.3406 11.7119 49.4156 12.4713 49.0312L26.0088 42.15L39.5369 49.0312C40.2869 49.4156 41.1963 49.3406 41.8806 48.8438C42.565 48.3469 42.9119 47.5125 42.7806 46.6687L40.4088 31.6781L51.1338 20.9437C51.7338 20.3438 51.94 19.4625 51.6775 18.6562C51.415 17.85 50.7306 17.2594 49.8869 17.1281L34.9056 14.7469L28.015 1.22812Z"
    fill="currentColor"
  />
</svg>