<svg width="13" height="14" viewBox="0 0 13 14" fill="none" xmlns="http://www.w3.org/2000/svg">
<path d="M12.3818 2.88281C12.8701 2.39453 12.8701 1.60156 12.3818 1.11328C11.8936 0.625 11.1006 0.625 10.6123 1.11328L6.49902 5.23047L2.38184 1.11719C1.89355 0.628906 1.10059 0.628906 0.612305 1.11719C0.124023 1.60547 0.124023 2.39844 0.612305 2.88672L4.72949 7L0.616211 11.1172C0.12793 11.6055 0.12793 12.3984 0.616211 12.8867C1.10449 13.375 1.89746 13.375 2.38574 12.8867L6.49902 8.76953L10.6162 12.8828C11.1045 13.3711 11.8975 13.3711 12.3857 12.8828C12.874 12.3945 12.874 11.6016 12.3857 11.1133L8.26855 7L12.3818 2.88281Z" fill="black"/>
</svg>
